<svg xmlns="http://www.w3.org/2000/svg" width="139" height="138" fill="none" viewBox="0 0 139 138"><rect width="137.853" height="137.853" x=".912" fill="url(#paint0_linear_7226_51798)" rx="20.838"/><path fill="#fff" fill-rule="evenodd" d="M82.7648 14.3259C84.6967 14.3299 86.2595 15.8993 86.2555 17.8312L86.2004 44.2267C86.1964 46.1586 84.627 47.7214 82.6951 47.7174L73.4578 47.6981L70.5297 52.8665C70 53.8015 68.6421 53.7688 68.158 52.8095L65.5703 47.6817L56.2996 47.6623C54.3677 47.6583 52.8049 46.0889 52.8089 44.157L52.864 17.7615C52.868 15.8296 54.4374 14.2668 56.3693 14.2708L82.7648 14.3259ZM80.1173 31.6336L70.7005 41.3919C70.0662 42.0262 69.0415 42.0262 68.456 41.3919L58.9905 31.6336C56.2581 28.8037 56.4045 24.1197 59.4784 21.4849C62.1131 19.1917 66.1628 19.6308 68.6024 22.1192L69.5783 23.1438L70.5053 22.1192C72.9449 19.6308 76.9458 19.1917 79.6781 21.4849C82.7032 24.1197 82.8496 28.8037 80.1173 31.6336Z" clip-rule="evenodd"/><rect width="91.941" height="58.209" x="18.009" y="69.642" fill="#036" rx="3.139" transform="rotate(-14.7475 18.0088 69.6424)"/><rect width="91.941" height="58.209" x="20.34" y="58.2" fill="#FCBA19" rx="3.139"/><rect width="29.606" height="33.541" x="28.717" y="69.561" fill="#fff" rx="3.662"/><path fill="#FCBA19" d="M43.5175 86.4475C46.7715 86.4475 49.4677 83.7979 49.4677 80.4974C49.4677 77.2434 46.7715 74.5472 43.5175 74.5472C40.2171 74.5472 37.5674 77.2434 37.5674 80.4974C37.5674 83.7979 40.2171 86.4475 43.5175 86.4475ZM45.8418 88.6789H41.1468C36.6841 88.6789 33.1047 92.3047 33.1047 96.7674C33.1047 97.6506 33.802 98.3479 34.6853 98.3479H52.3033C53.1866 98.3479 53.9303 97.6506 53.9303 96.7674C53.9303 92.3047 50.3045 88.6789 45.8418 88.6789Z"/><rect width="17.587" height="5.341" x="63.868" y="92.373" fill="#fff" rx="2.67"/><rect width="38.879" height="5.341" x="63.868" y="80.943" fill="#fff" rx="2.67"/><rect width="38.879" height="5.341" x="63.868" y="69.513" fill="#fff" rx="2.67"/><defs><linearGradient id="paint0_linear_7226_51798" x1="54.607" x2="-56.044" y1="101.346" y2="-91.754" gradientUnits="userSpaceOnUse"><stop stop-color="#0058A9"/><stop offset="1" stop-color="#FAFCFF"/></linearGradient></defs></svg>